<?xml version="1.0" standalone="no"?>
<!DOCTYPE svg PUBLIC "-//W3C//DTD SVG 1.1//EN" "http://www.w3.org/Graphics/SVG/1.1/DTD/svg11.dtd" >
<svg xmlns="http://www.w3.org/2000/svg">
<metadata>Generated by IcoMoon</metadata>
<defs>
<font id="key-commands" horiz-adv-x="1024">
<font-face units-per-em="1024" ascent="960" descent="-64" />
<missing-glyph horiz-adv-x="1024" />
<glyph unicode="&#x20;" d="" horiz-adv-x="512" />
<glyph unicode="&#x27;" d="M873.054 940.009h-722.090c-74.075 0-134.12-60.045-134.12-134.12v-722.074c0-74.075 60.045-134.12 134.12-134.12h722.090c74.058 0 134.103 60.028 134.103 134.12v722.074c0 74.075-60.045 134.12-134.103 134.12zM460.284 774.881c-5.322 5.979-8 13.255-8 21.812 0 25.652 14.283 45.729 42.832 60.197l7.697-14.215c-16.186-7.899-24.271-17.18-24.271-27.825 6.973-0.792 12.7-3.588 17.18-8.388s6.703-10.358 6.703-16.675c0-6.703-2.206-12.363-6.619-16.978s-9.904-6.906-16.489-6.906c-7.36 0-13.71 2.981-19.033 8.977zM532.422 321.385c4.48-4.8 6.703-10.358 6.703-16.675 0-6.703-2.206-12.363-6.619-16.978s-9.904-6.906-16.489-6.906c-7.242 0-13.559 2.998-18.948 8.977s-8.085 13.255-8.085 21.812c0 25.652 14.283 45.729 42.832 60.197l7.697-14.215c-16.186-7.899-24.271-17.18-24.271-27.825 6.973-0.792 12.7-3.588 17.18-8.388zM567.944 806.461c4.48-4.8 6.703-10.358 6.703-16.675 0-6.703-2.173-12.363-6.518-16.978s-9.803-6.906-16.388-6.906c-7.377 0-13.744 2.998-19.15 8.977s-8.085 13.255-8.085 21.812c0 25.652 14.35 45.729 43.034 60.197l7.495-14.215c-16.051-7.899-24.085-17.18-24.085-27.825 6.872-0.792 12.531-3.588 16.995-8.388z" />
<glyph unicode="&#x2c;" d="M873.054 940.009h-722.090c-74.075 0-134.12-60.045-134.12-134.12v-722.074c0-74.075 60.045-134.12 134.12-134.12h722.090c74.058 0 134.103 60.028 134.103 134.12v722.074c0 74.075-60.045 134.12-134.103 134.12zM499.46 40.209l-7.495 14.215c16.051 7.899 24.085 17.18 24.085 27.825-6.838 0.792-12.497 3.621-16.978 8.489s-6.703 10.392-6.703 16.573c0 6.703 2.173 12.363 6.518 16.978s9.803 6.906 16.388 6.906c7.377 0 13.744-2.998 19.15-8.977s8.085-13.188 8.085-21.609c-0.034-25.787-14.367-45.914-43.051-60.399zM586.892 786.823l-118.423-72.239 118.423-70.471v-29.020l-147.645 88.628v23.681l147.645 87.836v-28.414z" />
<glyph unicode="&#x2d;" d="M873.054 940.009h-722.090c-74.075 0-134.12-60.045-134.12-134.12v-722.074c0-74.075 60.045-134.12 134.12-134.12h722.090c74.058 0 134.103 60.028 134.103 134.12v722.074c0 74.075-60.045 134.12-134.103 134.12zM572.289 272.54h-117.244v29.997h117.244v-29.997zM637.034 573.473h-242.589v25.854h242.572v-25.854z" />
<glyph unicode="&#x2e;" d="M873.054 940.009h-722.090c-74.075 0-134.12-60.045-134.12-134.12v-722.074c0-74.075 60.045-134.12 134.12-134.12h722.090c74.058 0 134.103 60.028 134.103 134.12v722.074c0 74.075-60.045 134.12-134.103 134.12zM531.934 89.845c-4.8-5.070-10.628-7.596-17.466-7.596-6.703 0-12.43 2.526-17.18 7.596s-7.108 11.15-7.108 18.258 2.341 12.986 7.007 17.668 10.426 7.007 17.264 7.007c6.973 0 12.834-2.375 17.567-7.108s7.108-10.594 7.108-17.567c0-7.091-2.392-13.188-7.192-18.258zM594.589 703.72l-147.645-88.628v29.020l118.423 70.471-118.423 72.239v28.414l147.645-87.836v-23.681z" />
<glyph unicode="&#x2f;" d="M873.054 940.009h-722.090c-74.075 0-134.12-60.045-134.12-134.12v-722.074c0-74.075 60.045-134.12 134.12-134.12h722.090c74.058 0 134.103 60.028 134.103 134.12v722.074c0 74.075-60.045 134.12-134.103 134.12zM504.395 856.502c24.877 0 44.078-5.592 57.637-16.776s20.329-27.707 20.329-49.535c0-22.637-14.67-46.116-44.011-70.471-12.767-10.527-20.565-17.533-23.395-21.020s-5.103-7.731-6.805-12.733-2.56-11.251-2.56-18.746v-10.864h-27.033v11.251c0 22.89 7.31 40.726 21.913 53.493l26.056 22.89c8.421 7.108 14.603 14.316 18.561 21.609s5.929 15.091 5.929 23.395c0 13.676-4.345 24.186-13.020 31.479s-20.532 10.948-35.522 10.948c-13.559 0-30.654-4.868-51.32-14.603l-9.28 23.883c23.243 10.527 44.095 15.799 62.521 15.799zM520.177 593.196c0-7.108-2.409-13.188-7.209-18.258s-10.628-7.596-17.466-7.596c-6.703 0-12.43 2.526-17.18 7.596s-7.108 11.15-7.108 18.258 2.341 12.986 7.007 17.668 10.426 7.007 17.264 7.007c6.973 0 12.834-2.375 17.567-7.108s7.125-10.594 7.125-17.567zM465.909 82.249h-29.020l120.393 289.16h29.61l-120.983-289.16z" />
<glyph unicode="&#x30;" d="M515.368 342.115c-18.526 0-33.684-10.105-43.789-28.632s-13.474-48.842-13.474-87.579c0-40.421 5.053-69.053 13.474-87.579s23.579-28.632 43.789-28.632c20.211 0 33.684 8.421 43.789 26.947s13.474 47.158 13.474 87.579c0 40.421-5.053 70.737-13.474 87.579s-25.263 30.316-43.789 30.316zM535.579 204.010c-5.053-6.737-13.474-8.421-20.211-8.421-8.421 0-15.158 3.368-20.211 8.421s-8.421 13.474-8.421 21.895c0 8.421 3.368 15.158 8.421 21.895s11.789 8.421 20.211 8.421 15.158-3.368 20.211-8.421 8.421-13.474 8.421-20.211c0-10.105-3.368-16.842-8.421-23.579zM872.421 940.010h-720.842c-74.105 0-134.737-60.632-134.737-134.737v-722.526c0-74.105 60.632-134.737 134.737-134.737h722.526c74.105 0 134.737 60.632 134.737 134.737v722.526c-1.684 74.105-62.316 134.737-136.421 134.737zM515.368 773.273c-10.105 21.895-26.947 45.474-50.526 65.684l11.789 16.842c30.316-21.895 52.211-47.158 67.368-77.474s23.579-60.632 23.579-92.632c0-32-8.421-64-23.579-92.632s-37.053-55.579-67.368-77.474l-11.789 16.842c23.579 21.895 42.105 43.789 52.211 67.368s15.158 52.211 15.158 85.895c0 35.368-5.053 64-16.842 87.579zM584.421 121.484c-15.158-25.263-38.737-38.737-69.053-38.737-28.632 0-52.211 13.474-67.368 37.053s-23.579 60.632-23.579 106.105c0 43.789 8.421 79.158 23.579 106.105s38.737 38.737 69.053 38.737c30.316 0 52.211-13.474 67.368-38.737s23.579-60.632 23.579-106.105c-1.684-43.789-8.421-79.158-23.579-104.421z" />
<glyph unicode="&#x31;" d="M872.421 940.010h-720.842c-74.105 0-134.737-60.632-134.737-134.737v-722.526c0-74.105 60.632-134.737 134.737-134.737h722.526c74.105 0 134.737 60.632 134.737 134.737v722.526c-1.684 74.105-62.316 134.737-136.421 134.737zM495.158 850.747h35.368v-90.947l-10.105-104.421h-16.842l-10.105 104.421v90.947zM495.158 611.589c5.053 5.053 10.105 6.737 16.842 6.737s13.474-1.684 16.842-6.737 6.737-10.105 6.737-16.842-1.684-13.474-6.737-18.526-10.105-8.421-16.842-8.421c-6.737 0-11.789 3.368-16.842 8.421s-6.737 10.105-6.737 16.842 3.368 13.474 6.737 18.526zM594.526 87.799h-146.526v28.632h58.947v215.579l-55.579-28.632v32l60.632 30.316h28.632v-252.632h55.579v-25.263z" />
<glyph unicode="&#x32;" d="M496.842 726.115c-6.737-13.474-10.105-28.632-10.105-50.526 0-11.789 1.684-21.895 5.053-28.632s6.737-10.105 11.789-10.105c6.737 0 13.474 3.368 18.526 10.105s6.737 11.789 8.421 15.158l8.421 75.789c-3.368 5.053-10.105 6.737-16.842 6.737-10.105 1.684-18.526-5.053-25.263-18.526zM872.421 940.010h-720.842c-74.105 0-134.737-60.632-134.737-134.737v-722.526c0-74.105 60.632-134.737 134.737-134.737h722.526c74.105 0 134.737 60.632 134.737 134.737v722.526c-1.684 74.105-62.316 134.737-136.421 134.737zM587.789 87.799h-153.263v23.579c38.737 43.789 64 72.421 75.789 87.579s20.211 30.316 28.632 47.158 10.105 32 10.105 48.842c0 15.158-5.053 26.947-13.474 37.053s-21.895 13.474-38.737 13.474c-13.474 0-30.316-3.368-52.211-11.789l-5.053 28.632c20.211 8.421 40.421 13.474 62.316 13.474 25.263 0 45.474-6.737 60.632-20.211s23.579-32 23.579-55.579c0-16.842-3.368-33.684-11.789-50.526s-18.526-32-30.316-47.158-35.368-42.105-70.737-80.842h117.895v-33.684zM602.947 646.957c-11.789-20.211-28.632-30.316-47.158-30.316-13.474 0-21.895 8.421-25.263 23.579-6.737-15.158-18.526-23.579-32-23.579-10.105 0-18.526 5.053-25.263 15.158s-10.105 23.579-10.105 40.421c0 26.947 5.053 48.842 16.842 67.368s25.263 26.947 42.105 26.947c6.737 0 13.474-1.684 20.211-6.737v5.053h25.263c-8.421-70.737-11.789-109.474-11.789-114.526 0-3.368 0-6.737 1.684-8.421s3.368-3.368 5.053-3.368c8.421 0 16.842 8.421 23.579 23.579s11.789 35.368 11.789 60.632c0 35.368-6.737 62.316-21.895 82.526s-33.684 30.316-57.263 30.316c-25.263 0-45.474-13.474-62.316-40.421s-23.579-64-23.579-109.474c0-37.053 8.421-67.368 23.579-89.263s37.053-33.684 62.316-33.684c21.895 0 40.421 5.053 60.632 13.474l5.053-18.526c-20.211-11.789-42.105-16.842-64-16.842-32 0-57.263 13.474-77.474 38.737s-30.316 60.632-30.316 104.421c0 52.211 10.105 94.316 30.316 124.632s45.474 45.474 77.474 45.474c30.316 0 53.895-11.789 72.421-35.368s28.632-55.579 28.632-97.684c-1.684-30.316-6.737-53.895-18.526-74.105z" />
<glyph unicode="&#x33;" d="M483.368 677.273h52.211l15.158 70.737h-52.211zM872.421 940.010h-720.842c-74.105 0-134.737-60.632-134.737-134.737v-722.526c0-74.105 60.632-134.737 134.737-134.737h722.526c74.105 0 134.737 60.632 134.737 134.737v722.526c-1.684 74.105-62.316 134.737-136.421 134.737zM560.842 108.010c-18.526-16.842-42.105-25.263-67.368-25.263-21.895 0-42.105 5.053-58.947 15.158l6.737 26.947c18.526-8.421 37.053-13.474 53.895-13.474s32 5.053 43.789 15.158 18.526 23.579 18.526 40.421c0 16.842-6.737 28.632-18.526 38.737s-30.316 15.158-50.526 15.158h-8.421v26.947h1.684c20.211 0 37.053 5.053 50.526 13.474s20.211 21.895 20.211 38.737c0 13.474-5.053 23.579-13.474 30.316s-21.895 11.789-38.737 11.789c-15.158 0-30.316-3.368-48.842-11.789l-5.053 28.632c18.526 8.421 35.368 11.789 53.895 11.789 25.263 0 45.474-6.737 62.316-20.211s23.579-30.316 23.579-50.526c0-13.474-5.053-26.947-15.158-40.421s-21.895-20.211-35.368-23.579v-1.684c16.842-5.053 30.316-13.474 40.421-25.263s15.158-26.947 15.158-42.105c-1.684-21.895-11.789-43.789-30.316-58.947zM621.474 748.010h-42.105l-15.158-70.737h57.263v-25.263h-62.316l-16.842-79.158h-28.632l16.842 79.158h-52.211l-16.842-79.158h-28.632l16.842 79.158h-37.053v25.263h42.105l15.158 70.737h-58.947v25.263h64l16.842 77.474h28.632l-16.842-77.474h52.211l16.842 77.474h28.632l-16.842-77.474h37.053v-25.263z" />
<glyph unicode="&#x34;" d="M539.53 180.157v153.944l-88.425-153.944zM505.979 743.199v82.901c-23.429-6.181-35.134-20.060-35.134-41.653 0-15.917 11.706-29.677 35.134-41.248zM564.592 648.66c0 11.049-2.796 20.464-8.388 28.229s-14.637 15.074-27.134 21.913v-100.266c23.681 8.539 35.522 25.248 35.522 50.125zM873.054 940.009h-722.090c-74.075 0-134.12-60.045-134.12-134.12v-722.074c0-74.075 60.045-134.12 134.12-134.12h722.090c74.058 0 134.103 60.028 134.103 134.12v722.074c0 74.075-60.045 134.12-134.103 134.12zM456.831 830.244c11.706 12.632 28.094 20.852 49.148 24.675v20.919h23.092v-19.336c18.022 0 35.791-2.83 53.291-8.489l-7.31-27.639c-16.051 5.659-31.378 8.489-45.981 8.489v-96.51c24.877-10.662 42.276-22.468 52.213-35.438s14.906-27.673 14.906-44.112c0-20.784-5.962-38.452-17.87-52.988s-28.33-24.372-49.249-29.509v-25.467h-23.092v22.502h-1.583c-23.951 0-44.937 4.733-62.959 14.215l6.703 27.825c21.188-9.6 39.665-14.401 55.464-14.401h2.375v115.071c-28.296 12.11-46.487 24.052-54.571 35.825s-12.144 24.237-12.144 37.408c0 18.662 5.844 34.326 17.567 46.958zM606.245 151.928h-34.343v-64.34h-32.372v64.34h-121.185v24.675l109.934 189.483h43.623v-185.929h34.343v-28.229z" />
<glyph unicode="&#x35;" d="M571.498 675.305c-18.291 0-27.437-14.013-27.437-42.040s9.146-42.040 27.437-42.040 27.437 14.013 27.437 42.040-9.146 42.040-27.437 42.040zM873.054 940.009h-722.090c-74.075 0-134.12-60.045-134.12-134.12v-722.074c0-74.075 60.045-134.12 134.12-134.12h722.090c74.058 0 134.103 60.028 134.103 134.12v722.074c0 74.075-60.045 134.12-134.103 134.12zM403.725 790.562c0 18.948 5.036 34.68 15.091 47.177s23.647 18.746 40.76 18.746c17.5 0 31.159-6.114 40.962-18.359s14.704-28.094 14.704-47.564-4.935-35.336-14.805-47.564-23.496-18.359-40.861-18.359c-17.23 0-30.856 6.148-40.861 18.46s-14.99 28.128-14.99 47.463zM574.664 851.163h27.639l-147.258-278.498h-27.437l147.056 278.498zM564.979 108.608c-17.769-17.567-39.412-26.342-64.93-26.342-24.338 0-44.735 4.076-61.19 12.245l6.518 27.437c17.887-7.495 36.381-11.251 55.464-11.251 16.978 0 30.688 5.457 41.147 16.388s15.698 26.191 15.698 45.796c0 18.561-4.935 32.827-14.805 42.832s-22.57 15.007-38.099 15.007c-11.318 0-22.502-2.173-33.551-6.518l-19.336 8.876v133.026h127.316v-28.229h-99.087v-84.080c8.944 2.375 17.702 3.554 26.258 3.554 26.309 0 47.11-8.068 62.369-24.186s22.89-36.212 22.89-60.298c-0.017-25.281-8.893-46.689-26.662-64.256zM612.46 585.785c-9.937-12.295-23.58-18.46-40.962-18.46-17.23 0-30.856 6.181-40.861 18.561s-15.007 28.161-15.007 47.362c0 19.083 5.036 34.831 15.091 47.278s23.647 18.645 40.76 18.645c17.5 0 31.193-6.080 41.063-18.258s14.805-28.060 14.805-47.666c0.017-19.336-4.952-35.151-14.889-47.463zM487.030 790.562c0 28.027-9.146 42.040-27.437 42.040-18.426 0-27.639-14.013-27.639-42.040s9.213-42.040 27.639-42.040c18.291 0 27.437 14.013 27.437 42.040z" />
<glyph unicode="&#x36;" d="M522.105 225.905c-20.211 0-38.737-6.737-55.579-20.211 0-23.579 5.053-45.474 16.842-65.684s25.263-28.632 42.105-28.632c15.158 0 25.263 5.053 33.684 15.158s11.789 25.263 11.789 43.789c0 16.842-5.053 30.316-13.474 40.421s-20.211 15.158-35.368 15.158zM872.421 940.010h-720.842c-74.105 0-134.737-60.632-134.737-134.737v-722.526c0-74.105 60.632-134.737 134.737-134.737h722.526c74.105 0 134.737 60.632 134.737 134.737v722.526c-1.684 74.105-62.316 134.737-136.421 134.737zM584.421 108.010c-13.474-16.842-32-25.263-55.579-25.263-30.316 0-53.895 13.474-70.737 40.421s-25.263 60.632-25.263 99.368c0 42.105 8.421 77.474 26.947 106.105s42.105 42.105 74.105 42.105c21.895 0 40.421-3.368 55.579-10.105l-5.053-26.947c-18.526 6.737-35.368 10.105-50.526 10.105-21.895 0-38.737-10.105-50.526-30.316s-18.526-47.158-18.526-79.158c16.842 13.474 37.053 21.895 57.263 21.895 23.579 0 43.789-6.737 58.947-21.895s23.579-33.684 23.579-58.947c0-28.632-6.737-50.526-20.211-67.368zM587.789 727.799l-72.421 117.895-70.737-117.895h-28.632l89.263 148.211h23.579l87.579-148.211h-28.632z" />
<glyph unicode="&#x37;" d="M524.826 772.22c6.114 8.287 9.179 17.112 9.179 26.443 0 10.257-3.133 18.022-9.382 23.294s-13.778 7.899-22.603 7.899c-10.257 0-18.847-3.133-25.753-9.382s-10.358-14.906-10.358-25.955c0-14.215 8.809-31.193 26.443-50.916 15.529 10.779 26.342 20.313 32.473 28.616zM452.182 677.562c-6.383-9.533-9.567-20.094-9.567-31.682 0-14.468 5.103-26.646 15.293-36.515s22.334-14.805 36.414-14.805c21.98 0 40.996 10.864 57.047 32.574l-66.327 81.722c-15.529-11.318-26.477-21.744-32.861-31.294zM873.054 940.009h-722.090c-74.075 0-134.12-60.045-134.12-134.12v-722.074c0-74.075 60.045-134.12 134.12-134.12h722.090c74.058 0 134.103 60.028 134.103 134.12v722.074c0 74.075-60.045 134.12-134.103 134.12zM598.935 342.994l-110.338-255.406h-33.164l108.755 250.269h-130.465v28.229h165.212v-23.092zM636.629 574.248c-5.794-2.375-12.969-3.554-21.508-3.554-6.973 0-13.879 2.459-20.717 7.394s-15.664 14.569-26.443 28.919c-20.532-26.443-45.324-39.665-74.412-39.665-23.294 0-43 7.394-59.119 22.199s-24.186 33.197-24.186 55.161c0 14.081 4.211 27.403 12.632 39.968s24.153 26.814 47.177 42.731c-21.845 25.652-32.76 48.036-32.76 67.102 0 18.426 6.080 33.349 18.258 44.802s27.538 17.18 46.082 17.18c17.23 0 31.446-4.901 42.629-14.704s16.776-23.395 16.776-40.76c0-12.497-3.823-24.473-11.453-35.926s-21.913-24.81-42.832-40.069l58.226-71.852c8.944 22.89 15.63 38.823 20.026 47.767s10.628 16.675 18.645 23.193 18.359 9.769 30.991 9.769h1.583v-27.033h-1.583c-8.034 0-15.731-4.278-23.092-12.834s-17.112-29.475-29.206-62.774c9.87-11.841 17.567-20.329 23.092-25.467s11.706-7.697 18.561-7.697c3.166 0 7.377 0.387 12.632 1.179v-25.029z" />
<glyph unicode="&#x38;" d="M514.855 226.138c-36.061-10.527-54.083-30.334-54.083-59.405 0-16.978 5.457-30.553 16.388-40.76s23.749-15.293 38.486-15.293c15.26 0 28.128 5.036 38.587 15.091s15.698 23.715 15.698 40.962c0 13.020-3.621 24.709-10.864 35.033s-21.98 18.46-44.213 24.372zM514.855 253.777c0.657 0 3.823 0.792 9.466 2.375s10.493 3.52 14.502 5.828 7.731 5.238 11.15 8.775 6.181 7.731 8.287 12.531 3.166 10.173 3.166 16.085c0 12.632-4.548 23.125-13.626 31.479s-20.060 12.531-32.962 12.531c-12.497 0-23.226-4.278-32.17-12.834s-13.424-18.948-13.424-31.193c0-7.765 1.617-14.535 4.834-20.329s7.242-10.459 12.043-14.013 10.325-6.316 16.573-8.287 10.308-2.948 12.161-2.948zM873.054 940.009h-722.090c-74.075 0-134.12-60.045-134.12-134.12v-722.074c0-74.075 60.045-134.12 134.12-134.12h722.090c74.058 0 134.103 60.028 134.103 134.12v722.074c0 74.075-60.045 134.12-134.103 134.12zM445.765 806.748l11.638 19.74 47.362-31.581v56.255h21.913v-55.851l46.773 31.193 11.841-19.74-48.946-32.372 48.946-32.372-11.841-19.74-46.773 30.991v-56.458h-21.896v56.458l-47.362-31.378-11.638 20.127 49.737 32.372-49.754 32.355zM578.117 104.751c-16.91-15.007-37.728-22.502-62.47-22.502-25.921 0-47.211 7.562-63.852 22.704s-24.961 35.202-24.961 60.197c0 17.635 5.39 33.164 16.186 46.588s25.854 22.957 45.206 28.616c-15.394 3.941-27.723 11.554-37.004 22.805s-13.912 23.85-13.912 37.796c0 17.887 7.108 34.107 21.323 48.659s32.962 21.812 56.255 21.812c23.024 0 42.074-7.242 57.148-21.711s22.603-30.722 22.603-48.76c0-13.559-4.733-26.022-14.215-37.408s-21.711-19.117-36.718-23.193c18.948-5.524 33.652-14.94 44.112-28.229s15.698-28.818 15.698-46.588c-0.034-25.517-8.489-45.779-25.399-60.786z" />
<glyph unicode="&#x39;" d="M512.884 343.382c-14.872 0-26.747-5.491-35.623-16.489s-13.323-25.298-13.323-42.933c0-16.186 4.514-29.441 13.525-39.766s20.818-15.496 35.438-15.496c20.127 0 37.627 6.181 52.499 18.561l2.56 1.971c0 24.995-5.070 46.941-15.192 65.822s-23.445 28.33-39.884 28.33zM873.054 940.009h-722.090c-74.075 0-134.12-60.045-134.12-134.12v-722.074c0-74.075 60.045-134.12 134.12-134.12h722.090c74.058 0 134.103 60.028 134.103 134.12v722.074c0 74.075-60.045 134.12-134.103 134.12zM470.507 778.822c15.26 29.273 37.694 55.043 67.304 77.275l12.043-16.978c-24.085-21.576-41.417-44.179-52.011-67.793s-15.883-52.146-15.883-85.562c0-34.612 5.491-63.717 16.489-87.347s28.128-45.964 51.421-67.018l-12.043-16.978c-29.34 22.233-51.708 48.103-67.102 77.579s-23.092 60.601-23.092 93.36c-0.017 33.029 7.613 64.188 22.873 93.461zM574.361 125.973c-19.15-28.886-44.769-43.32-76.871-43.32-21.576 0-40.271 3.284-56.053 9.87l5.137 28.616c18.157-6.703 34.865-10.072 50.141-10.072 21.845 0 39.311 10.594 52.398 31.783s19.639 47.362 19.639 78.555c-16.051-14.081-34.932-21.121-56.643-21.121-23.546 0-43.185 7.529-58.917 22.603s-23.58 34.511-23.58 58.327c0 25.534 7.529 47.009 22.603 64.441s34.511 26.157 58.327 26.157c29.088 0 51.775-13.289 68.096-39.867s24.473-60.331 24.473-101.26-9.6-75.827-28.751-104.713z" />
<glyph unicode="&#x3b;" d="M873.054 940.009h-722.090c-74.075 0-134.12-60.045-134.12-134.12v-722.074c0-74.075 60.045-134.12 134.12-134.12h722.090c74.058 0 134.103 60.028 134.103 134.12v722.074c0 74.075-60.045 134.12-134.103 134.12zM497.389 774.477c4.548 4.548 10.106 6.805 16.675 6.805 6.703 0 12.363-2.274 16.978-6.805s6.906-10.106 6.906-16.675-2.307-12.144-6.906-16.675-10.257-6.805-16.978-6.805c-6.586 0-12.144 2.274-16.675 6.805s-6.805 10.106-6.805 16.675 2.257 12.144 6.805 16.675zM539.53 272.726c0-6.703-2.307-12.295-6.906-16.776s-10.257-6.703-16.978-6.703c-6.586 0-12.11 2.274-16.573 6.805s-6.703 10.106-6.703 16.675 2.24 12.144 6.703 16.675 10.005 6.805 16.573 6.805c6.703 0 12.363-2.274 16.978-6.805s6.906-10.106 6.906-16.675zM497.389 609.568c4.548 4.48 10.106 6.703 16.675 6.703 6.703 0 12.363-2.24 16.978-6.703s6.906-10.072 6.906-16.776c0-6.586-2.307-12.11-6.906-16.573s-10.257-6.703-16.978-6.703c-6.586 0-12.144 2.24-16.675 6.703s-6.805 10.005-6.805 16.573c-0.017 6.72 2.257 12.312 6.805 16.776zM499.46 40.209l-7.495 14.215c16.051 7.899 24.085 17.18 24.085 27.825-6.838 0.792-12.497 3.621-16.978 8.489s-6.703 10.392-6.703 16.573c0 6.703 2.173 12.363 6.518 16.978s9.803 6.906 16.388 6.906c7.377 0 13.744-2.998 19.15-8.977s8.085-13.188 8.085-21.609c-0.034-25.787-14.367-45.914-43.051-60.399z" />
<glyph unicode="&#x3d;" d="M873.054 940.009h-722.090c-74.075 0-134.12-60.045-134.12-134.12v-722.074c0-74.075 60.045-134.12 134.12-134.12h722.090c74.058 0 134.103 60.028 134.103 134.12v722.074c0 74.075-60.045 134.12-134.103 134.12zM609.007 177.782h-186.721v25.854h186.721v-25.854zM609.007 256.927h-186.721v25.854h186.721v-25.854zM609.007 702.338h-79.937v-80.728h-25.854v80.728h-80.93v25.854h80.93v80.93h25.854v-80.93h79.937v-25.854z" />
<glyph unicode="&#x41;" d="M1212.203 271.547c-19.083 0-33.888-7.529-44.415-22.603s-15.799-34.646-15.799-58.714c0-22.89 5.322-42.141 15.984-57.738s25.399-23.395 44.213-23.395c18.679 0 33.416 7.899 44.213 23.681s16.186 34.932 16.186 57.434c0 23.681-5.322 43.152-15.984 58.428s-25.45 22.906-44.398 22.906zM491.78 271.547c-21.711 0-40.137-11.841-55.262-35.522v-85.461c5.794-11.588 13.626-21.256 23.496-29.020s20.060-11.638 30.587-11.638c16.573 0 29.778 7.765 39.581 23.294s14.704 34.798 14.704 57.839c0 23.681-4.665 43.034-14.013 58.024s-22.384 22.485-39.092 22.485zM241.898 271.547c-19.083 0-33.888-7.529-44.415-22.603s-15.799-34.646-15.799-58.714c0-22.89 5.322-42.141 15.984-57.738s25.399-23.395 44.213-23.395c18.679 0 33.416 7.899 44.213 23.681s16.186 34.932 16.186 57.434c0 23.681-5.322 43.152-15.984 58.428s-25.45 22.906-44.398 22.906zM229.856 596.935c10.914 0 21.778 3.251 32.574 9.769s20.262 15.496 28.431 26.949v37.307c-27.757-2.493-46.807-4.834-57.148-7.007s-19.285-6.215-26.848-12.144-11.352-13.946-11.352-24.085c0-9.213 3.217-16.641 9.668-22.3s14.67-8.489 24.675-8.489zM1851.224 940.009h-1700.261c-74.075 0-134.12-60.045-134.12-134.12v-722.074c0-74.075 60.045-134.12 134.12-134.12h1700.261c74.058 0 134.103 60.028 134.103 134.12v722.074c0 74.075-60.028 134.12-134.103 134.12zM411.439 851.163h84.484v-251.852h53.291v-26.646h-84.080v251.852h-53.695v26.646zM169.255 652.399c4.076 7.765 10.072 14.316 17.955 19.639s17.5 9.533 28.818 12.632 24.742 5.238 40.271 6.417l34.545 2.762v9.87c0 35.269-16.456 52.904-49.35 52.904-7.765 0-17.601-1.684-29.509-5.036s-22.132-7.344-30.688-11.942l-8.085 22.098c28.027 14.35 54.083 21.508 78.168 21.508 46.84 0 70.269-24.81 70.269-74.412v-88.425c0-17.887 1.718-33.821 5.137-47.767h-30.587c-2.493 8.287-3.756 19.336-3.756 33.164-17.5-25.652-41.316-38.486-71.448-38.486-15.26 0-28.717 5.423-40.356 16.287s-17.466 24.843-17.466 41.939c-0.034 10.139 2.004 19.083 6.080 26.848zM309.405 112.061c-16.708-19.875-39.21-29.812-67.506-29.812-28.431 0-50.95 9.904-67.608 29.711s-24.961 46.015-24.961 78.657c0 32.372 8.354 58.394 25.062 78.067s39.21 29.509 67.506 29.509 50.798-9.87 67.506-29.61 25.062-45.729 25.062-77.966c0-32.507-8.354-58.698-25.062-78.555zM555.817 113.728c-14.148-20.986-33.197-31.479-57.148-31.479-12.767 0-24.709 3.183-35.825 9.567s-19.908 14.839-26.342 25.365v-110.928h-30.789v287.004h30.789v-26.646c6.838 9.466 16.085 17.112 27.723 22.89s23.917 8.691 36.819 8.691c23.681 0 42.276-9.769 55.767-29.307s20.228-44.971 20.228-76.282c0-31.597-7.074-57.889-21.222-78.875zM747.776 82.653c-36.718 0-55.076 19.403-55.076 58.226v125.733h-39.48v26.646h39.48v56.255h29.997v-56.255h69.864v-26.646h-69.864v-117.631c0-12.497 2.762-22.199 8.287-29.121s13.020-10.358 22.502-10.358c16.843 0 33.484 3.756 49.939 11.251l5.322-23.883c-20.633-9.483-40.979-14.215-60.971-14.215zM747.776 567.73c-36.718 0-55.076 19.403-55.076 58.226v125.733h-39.48v26.646h39.48v56.255h29.997v-56.255h69.864v-26.646h-69.864v-117.631c0-12.497 2.762-22.199 8.287-29.121s13.020-10.358 22.502-10.358c16.843 0 33.484 3.756 49.939 11.251l5.322-23.883c-20.633-9.483-40.979-14.215-60.971-14.215zM998.045 87.588h-30.789v179.024h-60.601v26.646h91.39v-205.669zM997.944 334.708c-4.009-4.076-8.977-6.114-14.906-6.114-5.39 0-10.173 2.139-14.316 6.417s-6.215 9.247-6.215 14.906 2.072 10.594 6.215 14.805 8.91 6.316 14.316 6.316c5.794 0 10.729-2.072 14.805-6.215s6.114-9.112 6.114-14.906c0.017-6.080-1.987-11.133-6.013-15.209zM1279.709 112.061c-16.708-19.875-39.21-29.812-67.506-29.812-28.431 0-50.95 9.904-67.608 29.711-16.641 19.807-24.961 46.015-24.961 78.657 0 32.372 8.354 58.394 25.062 78.067s39.21 29.509 67.506 29.509 50.798-9.87 67.506-29.61 25.062-45.729 25.062-77.966c0-32.507-8.354-58.698-25.062-78.555zM1534.509 87.588h-30.789v131.847c0 18.291-2.931 31.547-8.775 39.766s-15.041 12.329-27.538 12.329c-18.814 0-39.008-11.706-60.601-35.134v-148.824h-30.789v205.686h30.789v-30.199c22.098 23.429 45.392 35.134 69.864 35.134 38.553 0 57.839-23.294 57.839-69.864v-140.74z" horiz-adv-x="2006" />
<glyph unicode="&#x43;" d="M1630.902 710.49c-15.512 0.455-29.66-12.649-30.401-28.178-0.707-15.226 11.622-29.138 28.043-30.503 9.634-0.792 19.386-0.152 30.486-0.152 0 10.51 0.253 19.723-0.067 28.936-0.573 17.449-11.975 29.408-28.060 29.896zM1626.506 535.981c-15.394-1.634-27.016-16.152-25.904-30.705 1.162-15.125 14.384-27.656 29.307-27.74 15.361-0.118 27.942 11.554 28.886 27.505 0.573 9.735 0.118 19.521 0.118 31.159-11.975-0.017-22.283 0.859-32.406-0.219zM558.141 269.643c-19.083 0-33.888-7.529-44.415-22.603s-15.799-34.646-15.799-58.714c0-22.89 5.322-42.141 15.984-57.738s25.399-23.395 44.213-23.395c18.679 0 33.416 7.899 44.213 23.681s16.186 34.932 16.186 57.434c0 23.681-5.322 43.152-15.984 58.428s-25.45 22.906-44.398 22.906zM1250.858 164.847c-7.562-5.929-11.352-13.946-11.352-24.085 0-9.213 3.217-16.641 9.668-22.3s14.67-8.489 24.675-8.489c10.914 0 21.778 3.251 32.574 9.769s20.262 15.496 28.431 26.949v37.307c-27.757-2.493-46.807-4.834-57.148-7.007s-19.285-6.232-26.848-12.144zM1765.914 269.643c-16.978 0-30.401-7.529-40.271-22.603s-14.805-34.107-14.805-57.148c0-23.681 4.632-43.253 13.912-58.714s22.014-23.193 38.2-23.193c7.765 0 15.597 2.105 23.496 6.316s15.327 10.527 22.3 18.948 10.459 13.559 10.459 15.394v85.478c-14.738 23.681-32.507 35.522-53.291 35.522zM1805.815 651.843c16.708 1.499 27.69 14.384 27.134 30.57-0.488 14.923-11.824 26.763-26.78 27.993-14.839 1.23-28.818-9.297-30.991-25.13-1.432-10.443-0.269-21.239-0.269-33.602 11.436 0 21.239-0.707 30.907 0.168zM1851.224 940.009h-1700.261c-74.075 0-134.12-60.045-134.12-134.12v-722.074c0-74.075 60.045-134.12 134.12-134.12h1700.261c74.058 0 134.103 60.028 134.103 134.12v722.074c0 74.075-60.028 134.12-134.103 134.12zM335.494 80.362c-32.372 0-58.192 9.836-77.478 29.509s-28.919 45.83-28.919 78.454 9.702 58.782 29.121 78.454 44.903 29.509 76.484 29.509c20.666 0 40.339-3.621 59.018-10.864l-8.085-25.467c-18.679 6.451-35.522 9.668-50.529 9.668-22.637 0-40.558-7.31-53.779-21.913s-19.841-34.41-19.841-59.405c0-22.89 6.838-42.141 20.532-57.738s31.513-23.395 53.493-23.395c17.365 0 35.269 3.352 53.695 10.072l5.322-24.675c-17.921-8.135-37.593-12.211-59.034-12.211zM625.648 110.158c-16.708-19.875-39.21-29.812-67.506-29.812-28.431 0-50.95 9.904-67.608 29.711s-24.961 46.015-24.961 78.657c0 32.372 8.354 58.394 25.062 78.067s39.21 29.509 67.506 29.509 50.798-9.87 67.506-29.61 25.062-45.729 25.062-77.966c0-32.49-8.354-58.681-25.062-78.555zM896.634 85.685h-30.789v135.013c0 32.642-6.047 48.946-18.157 48.946-6.181 0-12.986-5.626-20.43-16.877s-11.15-17.466-11.15-18.645v-148.42h-30.587v135.013c0 32.642-6.114 48.946-18.359 48.946-6.047 0-12.801-5.626-20.228-16.877s-11.15-17.466-11.15-18.645v-148.42h-30.789v205.635h29.61v-30.991c5.794 10.914 12.666 19.639 20.633 26.157s15.883 9.769 23.782 9.769c8.287 0 15.731-3.251 22.3-9.769s11.116-15.226 13.626-26.157c5.794 10.914 12.7 19.639 20.717 26.157s15.917 9.769 23.681 9.769c24.877 0 37.307-22.233 37.307-66.715v-143.889zM1139.223 85.685h-30.789v135.013c0 32.642-6.047 48.946-18.157 48.946-6.181 0-12.986-5.626-20.43-16.877s-11.15-17.466-11.15-18.645v-148.42h-30.604v135.013c0 32.642-6.114 48.946-18.359 48.946-6.047 0-12.801-5.626-20.228-16.877s-11.15-17.466-11.15-18.645v-148.42h-30.789v205.635h29.61v-30.991c5.794 10.914 12.666 19.639 20.633 26.157s15.883 9.769 23.782 9.769c8.287 0 15.731-3.251 22.3-9.769s11.116-15.226 13.626-26.157c5.794 10.914 12.7 19.639 20.717 26.157s15.917 9.769 23.681 9.769c24.877 0 37.307-22.233 37.307-66.715v-143.889zM1340.159 85.685c-2.493 8.287-3.756 19.336-3.756 33.164-17.5-25.652-41.316-38.486-71.448-38.486-15.26 0-28.717 5.423-40.373 16.287-11.638 10.864-17.466 24.843-17.466 41.939 0 10.139 2.038 19.083 6.114 26.848s10.072 14.316 17.955 19.639c7.916 5.322 17.517 9.533 28.835 12.632s24.742 5.238 40.271 6.417l34.545 2.762v9.87c0 35.269-16.456 52.904-49.35 52.904-7.765 0-17.601-1.684-29.509-5.036s-22.132-7.344-30.705-11.942l-8.085 22.098c28.043 14.35 54.1 21.508 78.185 21.508 46.84 0 70.269-24.81 70.269-74.412v-88.425c0-17.887 1.718-33.821 5.137-47.767h-30.62zM1608.197 85.685h-30.789v131.847c0 18.291-2.931 31.547-8.775 39.766s-15.041 12.329-27.538 12.329c-18.814 0-39.008-11.706-60.601-35.134v-148.824h-30.789v205.686h30.789v-30.199c22.098 23.429 45.392 35.134 69.864 35.134 38.553 0 57.839-23.294 57.839-69.864v-140.74zM1849.994 85.685h-30.789v29.61c-6.316-10.139-15.361-18.494-27.134-25.062s-24.186-9.87-37.206-9.87c-23.546 0-42.175 10.493-55.851 31.479s-20.532 47.598-20.532 79.836c0 30.132 7.141 55.093 21.407 74.901s33.197 29.711 56.744 29.711c25.921 0 46.773-10.527 62.572-31.581v99.474h30.789v-278.498zM1805.782 569.027c34.090-0.724 60.062-27.235 60.298-61.409 0.269-34.174-25.82-61.83-59.152-62.723-34.949-0.926-63.515 24.321-65.367 58.142-0.556 10.274-0.084 20.633-0.084 32.153-15.933 0-31.362 0-49.569 0 0-10.763 0.707-21.93-0.118-32.978-2.661-35.454-30.789-59.203-67.186-57.249-32.389 1.735-58.496 31.345-57.215 64.913 1.213 32.018 27.757 58.277 59.995 59.136 9.769 0.269 19.555 0.051 30.519 0.051 0 16.708 0 32.507 0 49.855-10.224 0-19.959-0.219-29.66 0.034-33.72 0.876-60.5 27.909-60.854 61.342-0.371 32.962 25.719 61.359 57.771 62.807 35.909 1.667 63.751-21.593 66.546-56.222 0.91-11.133 0.152-22.401 0.152-34.966 17.803 0 32.49 0 49.569 0 0 9.685-0.118 19.268 0.017 28.835 0.505 35.724 27.319 62.487 62.555 62.487 34.831 0 61.696-26.46 62.1-61.207 0.421-35.438-25.82-62.302-61.763-63.11-9.264-0.219-18.544-0.034-28.919-0.034 0-16.624 0-32.052 0-49.821 10.139 0 20.245 0.185 30.368-0.034zM1693.389 570.104c16.321 0 31.648 0 47.261 0 0 16.405 0 31.816 0 47.699-16.119 0-31.395 0-47.261 0 0-16.439 0-31.85 0-47.699zM1774.319 509.571c0.034-2.425 0.286-4.884 0.792-7.259 3.369-15.664 16.978-26.275 31.53-24.692 15.462 1.684 26.544 14.3 26.309 29.947-0.236 15.546-11.318 27.488-27.521 28.633-9.634 0.674-19.369 0.118-31.159 0.118 0.017-10.291-0.051-18.527 0.051-26.747z" horiz-adv-x="2006" />
<glyph unicode="&#x44;" d="M1164.992 261.458c-15.917 0-29.105-5.255-39.564-15.799s-16.287-24.271-17.466-41.248h105.588c0 16.051-5.002 29.576-15.007 40.558s-21.188 16.489-33.551 16.489zM679.848 261.458c-15.917 0-29.121-5.255-39.581-15.799s-16.287-24.271-17.466-41.248h105.605c0 16.051-5.002 29.576-15.007 40.558s-21.188 16.489-33.551 16.489zM1791.651 940.009h-1640.687c-74.075 0-134.12-60.045-134.12-134.12v-722.074c0-74.075 60.045-134.12 134.12-134.12h1640.687c74.058 0 134.103 60.028 134.103 134.12v722.074c0 74.075-60.045 134.12-134.103 134.12zM512.463 77.499h-30.789v29.61c-6.316-10.139-15.361-18.494-27.134-25.062s-24.186-9.87-37.206-9.87c-23.546 0-42.175 10.493-55.851 31.479s-20.532 47.598-20.532 79.836c0 30.132 7.141 55.093 21.407 74.901s33.197 29.711 56.744 29.711c25.921 0 46.773-10.527 62.572-31.581v99.474h30.789v-278.498zM761.958 179.348h-141.127c0-23.294 6.737-42.495 20.228-57.637s30.031-22.704 49.636-22.704c18.679 0 37.964 3.352 57.839 10.072l5.322-24.675c-18.157-8.152-39.345-12.245-63.548-12.245-30.519 0-55.127 9.803-73.823 29.408s-28.027 46.049-28.027 79.347c0 32.642 8.388 58.647 25.163 78.067s38.452 29.121 65.031 29.121c23.681 0 43.488-9.011 59.405-27.033s23.883-42.040 23.883-72.037v-9.685zM983.409 77.499h-84.080v251.852h-53.695v26.646h84.484v-251.852h53.291v-26.646zM1247.102 179.348h-141.11c0-23.294 6.737-42.495 20.228-57.637s30.031-22.704 49.636-22.704c18.679 0 37.964 3.352 57.839 10.072l5.322-24.675c-18.157-8.152-39.345-12.245-63.548-12.245-30.519 0-55.127 9.803-73.806 29.408s-28.027 46.049-28.027 79.347c0 32.642 8.388 58.647 25.163 78.067s38.452 29.121 65.031 29.121c23.681 0 43.488-9.011 59.405-27.033s23.883-42.040 23.883-72.037v-9.685zM1424.542 72.564c-36.718 0-55.076 19.403-55.076 58.226v125.733h-39.48v26.646h39.48v56.255h29.997v-56.255h69.864v-26.646h-69.848v-117.631c0-12.497 2.762-22.199 8.287-29.121s13.020-10.358 22.502-10.358c16.843 0 33.484 3.756 49.939 11.251l5.322-23.883c-20.649-9.483-40.979-14.215-60.988-14.215zM1732.262 179.348h-141.127c0-23.294 6.737-42.495 20.228-57.637s30.031-22.704 49.636-22.704c18.679 0 37.964 3.352 57.839 10.072l5.322-24.675c-18.157-8.152-39.345-12.245-63.548-12.245-30.519 0-55.127 9.803-73.823 29.408s-28.027 46.049-28.027 79.347c0 32.642 8.388 58.647 25.163 78.067s38.452 29.121 65.031 29.121c23.681 0 43.488-9.011 59.405-27.033s23.883-42.040 23.883-72.037v-9.685zM1650.153 261.458c-15.917 0-29.121-5.255-39.581-15.799s-16.287-24.271-17.466-41.248h105.605c0 16.051-5.002 29.576-15.007 40.558s-21.188 16.489-33.551 16.489zM428.383 261.458c-16.978 0-30.402-7.529-40.271-22.603s-14.805-34.107-14.805-57.148c0-23.681 4.632-43.253 13.912-58.714s22.014-23.193 38.2-23.193c7.765 0 15.597 2.105 23.496 6.316s15.327 10.527 22.3 18.948 10.459 13.559 10.459 15.394v85.461c-14.738 23.698-32.507 35.539-53.291 35.539z" horiz-adv-x="1948" />
<glyph unicode="&#x46;" d="M872.421 940.010h-720.842c-74.105 0-134.737-60.632-134.737-134.737v-722.526c0-74.105 60.632-134.737 134.737-134.737h722.526c74.105 0 134.737 60.632 134.737 134.737v722.526c-1.684 74.105-62.316 134.737-136.421 134.737zM254.316 276.431v-26.947h-69.053v-178.526h-32v178.526h-50.526v26.947h52.211v6.737c0 26.947 5.053 43.789 13.474 55.579s23.579 15.158 47.158 15.158c13.474 0 30.316-3.368 47.158-8.421l-10.105-25.263c-15.158 3.368-26.947 6.737-38.737 6.737s-18.526-3.368-23.579-10.105-5.053-18.526-5.053-37.053v-3.368h69.053zM501.895 70.957h-30.316v131.368c0 18.526-3.368 32-8.421 40.421s-15.158 11.789-26.947 11.789c-18.526 0-38.737-11.789-60.632-35.368v-148.211h-30.316v205.474h30.316v-30.316c21.895 23.579 45.474 35.368 69.053 35.368 38.737 0 57.263-23.579 57.263-69.053v-141.474z" />
<glyph unicode="&#x49;" d="M873.054 940.009h-722.090c-74.075 0-134.12-60.045-134.12-134.12v-722.074c0-74.075 60.045-134.12 134.12-134.12h722.090c74.058 0 134.103 60.028 134.103 134.12v722.074c0 74.075-60.045 134.12-134.103 134.12zM399.616 376.63l112.393 213.114 112.393-213.114h-224.786z" />
<glyph unicode="&#x4a;" d="M873.054 940.009h-722.090c-74.075 0-134.12-60.045-134.12-134.12v-722.074c0-74.075 60.045-134.12 134.12-134.12h722.090c74.058 0 134.103 60.028 134.103 134.12v722.074c0 74.075-60.045 134.12-134.103 134.12zM568.028 332.468l-213.097 112.393 213.097 112.393v-224.786z" />
<glyph unicode="&#x4b;" d="M873.054 940.009h-722.090c-74.075 0-134.12-60.045-134.12-134.12v-722.074c0-74.075 60.045-134.12 134.12-134.12h722.090c74.058 0 134.103 60.028 134.103 134.12v722.074c0 74.075-60.045 134.12-134.103 134.12zM506.417 275.033l-101.074 218.689 224.466-11.773-123.391-206.915z" />
<glyph unicode="&#x4c;" d="M873.054 940.009h-722.090c-74.075 0-134.12-60.045-134.12-134.12v-722.074c0-74.075 60.045-134.12 134.12-134.12h722.090c74.058 0 134.103 60.028 134.103 134.12v722.074c0 74.075-60.045 134.12-134.103 134.12zM428.619 332.468v224.769l213.097-112.393-213.097-112.376z" />
<glyph unicode="&#x52;" d="M1803.682 940.050h-1653.085c-73.895 0-133.795-59.899-133.795-133.795v-720.32c0-73.895 59.899-133.795 133.795-133.795h1653.085c73.879 0 133.778 59.882 133.778 133.795v720.32c0 73.895-59.899 133.795-133.778 133.795zM584.677 190.982c-13.526 5.914-25.203 8.855-35.049 8.855-9.056 0-17.911-2.588-26.581-7.779s-16.634-12.602-23.926-22.246-10.921-15.055-10.921-16.248v-132.702h-30.512v205.17h30.512v-41.551c16.416 30.983 37.67 46.474 63.797 46.474 15.491 0 30.512-3.478 45.097-10.434l-12.417-29.538zM842.034 122.463h-140.784c0-23.237 6.721-42.392 20.179-57.497s29.958-22.649 49.516-22.649c18.633 0 37.872 3.344 57.698 10.048l5.309-24.615c-18.113-8.132-39.25-12.215-63.394-12.215-30.445 0-54.993 9.779-73.643 29.336s-27.959 45.937-27.959 79.154c0 32.562 8.367 58.505 25.102 77.877s38.359 29.051 64.873 29.051c23.624 0 43.383-8.989 59.261-26.967s23.825-41.938 23.825-71.862v-9.661zM1019.043 15.938c-36.628 0-54.943 19.356-54.943 58.085v125.427h-39.384v26.581h39.384v56.119h29.924v-56.119h69.695v-26.581h-69.695v-117.345c0-12.467 2.756-22.145 8.267-29.051s12.988-10.333 22.448-10.333c16.802 0 33.402 3.747 49.818 11.224l5.309-23.825c-20.599-9.46-40.879-14.181-60.823-14.181zM1319.514 20.861h-30.714v30.328c-22.044-23.506-45.281-35.251-69.695-35.251-38.46 0-57.698 23.304-57.698 69.896v140.196h30.714v-131.325c0-17.457 2.756-30.479 8.267-39.082s14.836-12.904 27.959-12.904c18.768 0 38.914 11.677 60.454 35.049v148.261h30.714v-205.17zM1552.642 190.982c-13.526 5.914-25.203 8.855-35.049 8.855-9.056 0-17.911-2.588-26.581-7.779s-16.634-12.602-23.926-22.246-10.921-15.055-10.921-16.248v-132.702h-30.512v205.17h30.512v-41.551c16.416 30.983 37.67 46.474 63.797 46.474 15.491 0 30.512-3.478 45.097-10.434l-12.417-29.538zM1803.883 20.861h-30.714v131.526c0 18.247-2.924 31.47-8.754 39.67s-15.004 12.299-27.471 12.299c-18.768 0-38.914-11.677-60.454-35.049v-148.463h-30.714v205.186h30.714v-30.126c22.044 23.372 45.281 35.049 69.695 35.049 38.46 0 57.698-23.237 57.698-69.695v-140.398zM760.124 204.373c-15.878 0-29.051-5.242-39.485-15.76s-16.248-24.212-17.424-41.148h105.349c0 16.012-4.99 29.504-14.971 40.459s-21.137 16.449-33.47 16.449z" horiz-adv-x="1965" />
<glyph unicode="&#x53;" d="M1548.051 940.009h-1397.088c-74.075 0-134.12-60.045-134.12-134.12v-722.074c0-74.075 60.045-134.12 134.12-134.12h1397.088c74.058 0 134.103 60.028 134.103 134.12v722.074c0 74.075-60.028 134.12-134.103 134.12zM272.3 65.254c-16.456-11.386-37.374-17.079-62.774-17.079-25.264 0-46.116 3.823-62.572 11.453l5.929 26.646c17.23-8.152 35.724-12.245 55.464-12.245 17.112 0 31.025 3.183 41.754 9.567s16.085 14.839 16.085 25.365c0 7.108-2.661 13.458-8 19.049s-17.87 11.42-37.593 17.466c-15.917 4.868-27.639 8.523-35.134 10.948s-14.468 6.013-20.919 10.763-11.352 10.392-14.704 16.978-5.036 13.946-5.036 22.098c0 17.769 7.765 31.85 23.294 42.242s36.128 15.597 61.78 15.597c16.573 0 35-2.83 55.262-8.489l-6.906-25.854c-17.23 5.659-33.484 8.489-48.76 8.489-16.708 0-29.93-2.796-39.665-8.388s-14.603-13.053-14.603-22.401c0-5.929 2.24-11.083 6.703-15.496s13.424-8.523 26.848-12.329l29.408-8.489c13.559-3.823 24.608-8.388 33.164-13.71s14.973-11.773 19.251-19.336 6.417-16.354 6.417-26.342c-0.034-19.622-8.253-35.118-24.692-46.503zM542.309 53.515h-30.789v131.847c0 18.291-2.931 31.547-8.775 39.766s-15.041 12.329-27.538 12.329c-18.814 0-39.008-11.706-60.601-35.134v-148.824h-30.789v278.515h30.789v-103.028c22.098 23.429 45.392 35.134 69.864 35.134 38.553 0 57.839-23.294 57.839-69.864v-140.74zM733.56 53.515h-30.789v179.024h-60.601v26.646h91.39v-205.669zM733.459 300.634c-4.009-4.076-8.977-6.114-14.906-6.114-5.39 0-10.173 2.139-14.316 6.417s-6.215 9.247-6.215 14.906 2.072 10.594 6.215 14.805 8.91 6.316 14.316 6.316c5.794 0 10.729-2.072 14.805-6.215s6.114-9.112 6.114-14.906c0.017-6.063-1.987-11.133-6.013-15.209zM1022.13 259.184v-26.646h-69.090v-179.024h-30.789v179.024h-51.708v26.646h51.708v6.906c0 26.191 4.48 44.55 13.424 55.076s24.405 15.799 46.385 15.799c14.215 0 29.997-2.695 47.362-8.085l-8.085-25.062c-14.603 4.211-27.707 6.316-39.278 6.316-11.049 0-18.645-3.133-22.805-9.382s-6.215-18.847-6.215-37.796v-3.756h69.090zM1211.007 48.58c-36.718 0-55.076 19.403-55.076 58.226v125.733h-39.463v26.646h39.463v56.255h29.997v-56.255h69.864v-26.646h-69.864v-117.631c0-12.497 2.762-22.199 8.287-29.121s13.020-10.358 22.502-10.358c16.843 0 33.484 3.756 49.939 11.251l5.322-23.883c-20.633-9.483-40.962-14.215-60.971-14.215z" horiz-adv-x="1716" />
<glyph unicode="&#x54;" d="M508.455 142.631c-7.562-5.929-11.352-13.946-11.352-24.085 0-9.213 3.217-16.641 9.668-22.3s14.67-8.489 24.675-8.489c10.914 0 21.778 3.251 32.574 9.769s20.262 15.496 28.431 26.949v37.307c-27.757-2.493-46.807-4.834-57.148-7.007s-19.285-6.215-26.848-12.144zM793.37 247.444c-21.711 0-40.137-11.841-55.262-35.522v-85.461c5.794-11.588 13.626-21.256 23.496-29.020s20.060-11.638 30.587-11.638c16.573 0 29.778 7.899 39.581 23.681s14.704 35.202 14.704 58.226c0 23.681-4.665 42.899-14.013 57.637s-22.384 22.098-39.092 22.098zM1835.459 940.009h-1684.496c-74.075 0-134.12-60.045-134.12-134.12v-722.074c0-74.075 60.045-134.12 134.12-134.12h1684.496c74.058 0 134.103 60.028 134.103 134.12v722.074c0 74.075-60.045 134.12-134.103 134.12zM321.633 58.551c-36.718 0-55.076 19.403-55.076 58.226v125.733h-39.48v26.646h39.48v56.255h29.997v-56.255h69.864v-26.646h-69.864v-117.631c0-12.497 2.762-22.199 8.287-29.121s13.020-10.358 22.502-10.358c16.843 0 33.484 3.756 49.939 11.251l5.322-23.883c-20.649-9.483-40.979-14.215-60.971-14.215zM597.756 63.486c-2.493 8.287-3.756 19.336-3.756 33.164-17.5-25.652-41.316-38.486-71.448-38.486-15.26 0-28.717 5.423-40.356 16.287s-17.466 24.843-17.466 41.939c0 10.139 2.038 19.083 6.114 26.848s10.072 14.316 17.955 19.639 17.5 9.533 28.818 12.632 24.742 5.238 40.271 6.417l34.545 2.762v9.853c0 35.269-16.456 52.904-49.35 52.904-7.765 0-17.601-1.684-29.509-5.036s-22.132-7.344-30.688-11.942l-8.085 22.098c28.027 14.35 54.083 21.508 78.168 21.508 46.84 0 70.269-24.81 70.269-74.412v-88.425c0-17.887 1.718-33.821 5.137-47.767h-30.62zM857.305 90.030c-14.215-21.256-33.231-31.884-57.047-31.884-12.767 0-24.709 3.183-35.825 9.567s-19.908 14.839-26.342 25.365v-29.61h-30.789v278.515h30.789v-99.474c6.838 9.466 16.085 17.112 27.723 22.89s23.917 8.691 36.819 8.691c23.951 0 42.596-9.6 55.952-28.818s20.026-44.482 20.026-75.793c0.017-31.715-7.091-58.192-21.306-79.448z" horiz-adv-x="1991" />
<glyph unicode="&#x56;" d="M446.136 306.445c-19.083 0-33.888-7.529-44.415-22.603s-15.799-34.646-15.799-58.714c0-22.89 5.322-42.141 15.984-57.738s25.399-23.395 44.213-23.395c18.679 0 33.416 7.899 44.213 23.681s16.186 34.932 16.186 57.434c0 23.681-5.322 43.152-15.984 58.428s-25.45 22.906-44.398 22.906zM1416.457 306.445c-19.083 0-33.888-7.529-44.415-22.603s-15.799-34.646-15.799-58.714c0-22.89 5.322-42.141 15.984-57.738s25.399-23.395 44.213-23.395c18.679 0 33.416 7.899 44.213 23.681s16.186 34.932 16.186 57.434c0 23.681-5.322 43.152-15.984 58.428s-25.45 22.906-44.398 22.906zM2029.17 940.009h-1878.206c-74.075 0-134.12-60.045-134.12-134.12v-722.074c0-74.075 60.045-134.12 134.12-134.12h1878.206c74.058 0 134.103 60.028 134.103 134.12v722.074c0 74.075-60.045 134.12-134.103 134.12zM223.506 117.164c-32.372 0-58.192 9.836-77.478 29.509s-28.919 45.83-28.919 78.454 9.702 58.782 29.121 78.454 44.903 29.509 76.484 29.509c20.666 0 40.339-3.621 59.018-10.864l-8.085-25.467c-18.679 6.451-35.522 9.668-50.529 9.668-22.637 0-40.558-7.31-53.779-21.913s-19.841-34.41-19.841-59.405c0-22.89 6.838-42.141 20.532-57.738s31.513-23.395 53.493-23.395c17.365 0 35.269 3.352 53.695 10.072l5.322-24.675c-17.921-8.135-37.593-12.211-59.034-12.211zM513.642 146.959c-16.708-19.875-39.21-29.812-67.506-29.812-28.431 0-50.95 9.904-67.608 29.711s-24.961 46.015-24.961 78.657c0 32.372 8.354 58.394 25.062 78.067s39.21 29.509 67.506 29.509 50.798-9.87 67.506-29.61 25.062-45.729 25.062-77.966c0-32.507-8.354-58.681-25.062-78.555zM768.459 122.487h-30.789v131.847c0 18.291-2.931 31.547-8.775 39.766s-15.041 12.329-27.538 12.329c-18.814 0-39.008-11.706-60.601-35.134v-148.824h-30.789v205.686h30.789v-30.199c22.098 23.429 45.392 35.134 69.865 35.134 38.553 0 57.839-23.294 57.839-69.865v-140.74zM952.013 117.552c-36.718 0-55.076 19.403-55.076 58.226v125.733h-39.463v26.646h39.48v56.255h29.997v-56.255h69.865v-26.646h-69.865v-117.631c0-12.497 2.762-22.199 8.287-29.121s13.020-10.358 22.502-10.358c16.843 0 33.484 3.756 49.939 11.251l5.322-23.883c-20.649-9.483-40.979-14.215-60.988-14.215zM1244.339 293.021c-13.559 5.929-25.264 8.876-35.134 8.876-9.078 0-17.955-2.594-26.646-7.798s-16.675-12.632-23.984-22.3-10.948-15.091-10.948-16.287v-133.026h-30.604v205.669h30.587v-41.653c16.456 31.058 37.762 46.588 63.953 46.588 15.529 0 30.587-3.486 45.206-10.459l-12.43-29.61zM1483.947 146.959c-16.708-19.875-39.21-29.812-67.506-29.812-28.431 0-50.95 9.904-67.608 29.711s-24.961 46.015-24.961 78.657c0 32.372 8.354 58.394 25.062 78.067s39.21 29.509 67.506 29.509 50.798-9.87 67.506-29.61 25.062-45.729 25.062-77.966c0.017-32.507-8.337-58.681-25.062-78.555zM1723.774 122.487h-84.080v251.852h-53.695v26.646h84.484v-251.852h53.291v-26.646z" horiz-adv-x="2185" />
<glyph unicode="&#x58;" d="M2896.842 84.431c0-74.105-60.632-134.737-134.737-134.737h-2610.526c-74.105 0-134.737 60.632-134.737 134.737v720.842c0 74.105 60.632 134.737 134.737 134.737h2610.526c74.105 0 134.737-60.632 134.737-134.737v-720.842z" horiz-adv-x="2919" />
<glyph unicode="&#x5b;" d="M873.054 940.009h-722.090c-74.075 0-134.12-60.045-134.12-134.12v-722.074c0-74.075 60.045-134.12 134.12-134.12h722.090c74.058 0 134.103 60.028 134.103 134.12v722.074c0 74.075-60.045 134.12-134.103 134.12zM574.26 339.036h-45.981v-278.111h45.981v-26.646h-76.787v331.806h76.787v-27.050zM575.052 825.309h-5.929c-12.245 0-20.75-2.627-25.568-7.899s-7.209-17.837-7.209-37.694v-12.632c0-27.235-3.166-47.312-9.466-60.197s-17.045-22.435-32.17-28.616c15.125-6.316 25.854-15.917 32.17-28.818s9.466-32.962 9.466-60.197v-12.632c0-19.875 2.409-32.439 7.209-37.711s13.323-7.899 25.568-7.899h5.929v-25.854h-15.597c-18.948 0-32.608 5.103-40.962 15.293s-12.531 29.121-12.531 56.761v18.948c0 24.608-3.217 41.754-9.668 51.421s-16.843 14.502-31.193 14.502v32.17c14.35 0 24.742 4.834 31.193 14.502s9.668 26.814 9.668 51.421v19.15c0 27.505 4.177 46.352 12.531 56.542s22.014 15.293 40.962 15.293h15.597v-25.854z" />
<glyph unicode="&#x5c;" d="M873.054 940.009h-722.090c-74.075 0-134.12-60.045-134.12-134.12v-722.074c0-74.075 60.045-134.12 134.12-134.12h722.090c74.058 0 134.103 60.028 134.103 134.12v722.074c0 74.075-60.045 134.12-134.103 134.12zM499.46 851.163h30.401v-354.106h-30.401v354.106zM557.282 82.249l-120.798 289.16h29.408l120.595-289.16h-29.206z" />
<glyph unicode="&#x5d;" d="M873.054 940.009h-722.090c-74.075 0-134.12-60.045-134.12-134.12v-722.074c0-74.075 60.045-134.12 134.12-134.12h722.090c74.058 0 134.103 60.028 134.103 134.12v722.074c0 74.075-60.045 134.12-134.103 134.12zM528.279 35.072h-78.758v26.646h47.969v277.723h-47.969v26.646h78.758v-331.014zM565.384 662.084c-14.215 0-24.574-4.834-31.092-14.502s-9.769-26.814-9.769-51.421v-18.948c0-27.639-4.143-46.554-12.43-56.761s-21.913-15.293-40.861-15.293h-15.799v25.854h6.114c12.245 0 20.75 2.627 25.568 7.899s7.209 17.837 7.209 37.711v12.632c0 27.235 3.166 47.312 9.466 60.197s17.045 22.502 32.17 28.818c-15.125 6.181-25.854 15.731-32.17 28.616s-9.466 32.962-9.466 60.197v12.632c0 19.875-2.409 32.439-7.209 37.694s-13.323 7.899-25.551 7.899h-6.114v25.854h15.799c18.948 0 32.574-5.103 40.861-15.293s12.43-29.054 12.43-56.542v-19.15c0-22.233 2.897-38.789 8.691-49.636s16.506-16.287 32.17-16.287v-32.17z" />
<glyph unicode="&#x60;" d="M885.335 956.852h-746.653c-76.578 0-138.682-62.070-138.682-138.682v-746.635c0-76.578 62.070-138.682 138.682-138.682h746.653c76.56 0 138.665 62.070 138.665 138.682v746.635c0 76.595-62.070 138.682-138.665 138.682zM522.615 273.994l-63.481 61.426h45.926l40.614-61.426h-23.059zM623.853 642.304c-21.091-17.816-41.45-26.733-61.043-26.733-11.407 0-28.823 5.312-52.248 15.918-23.947 10.589-40.962 15.918-51.028 15.918-15.918 0-35.72-9.387-59.388-28.161v29.398c21.491 17.816 42.338 26.733 62.453 26.733 11.721 0 29.276-5.312 52.648-15.918 23.389-10.589 40.074-15.918 50.001-15.918 15.918 0 35.441 9.317 58.57 27.952l0.035-29.189z" />
<glyph unicode="&#x61;" d="M479.721 413.684h72.829l-36.515 115.273zM873.054 940.009h-722.090c-74.075 0-134.12-60.045-134.12-134.12v-722.074c0-74.075 60.045-134.12 134.12-134.12h722.090c74.058 0 134.103 60.028 134.103 134.12v722.074c0 74.075-60.045 134.12-134.103 134.12zM592.619 287.952l-30.789 97.504h-91.39l-31.193-97.504h-33.551l90.986 278.498h38.89l90.986-278.498h-33.939z" />
<glyph unicode="&#x62;" d="M873.054 940.009h-722.090c-74.075 0-134.12-60.045-134.12-134.12v-722.074c0-74.075 60.045-134.12 134.12-134.12h722.090c74.058 0 134.103 60.028 134.103 134.12v722.074c0 74.075-60.045 134.12-134.103 134.12zM581.081 310.454c-18.359-15.007-40.423-22.502-66.226-22.502h-79.145v278.498h77.174c26.848 0 47.834-5.895 62.959-17.668s22.704-28.397 22.704-49.838c0-13.154-4.379-24.877-13.121-35.134s-20.818-17.702-36.212-22.3v-0.792c18.561-4.345 33.096-12.767 43.623-25.264s15.799-27.37 15.799-44.6c-0.034-25.264-9.213-45.392-27.555-60.399zM565.384 498.168c0 12.902-4.868 22.805-14.603 29.711s-24.018 10.358-42.832 10.358h-39.867v-82.497h37.897c39.598-0.017 59.405 14.131 59.405 42.427zM502.425 427.495h-34.343v-111.315h36.718c21.441 0 38.452 4.868 51.017 14.603s18.847 23.092 18.847 40.069c0 18.022-6.181 31.968-18.561 41.838s-30.267 14.805-53.678 14.805z" />
<glyph unicode="&#x63;" d="M873.054 940.009h-722.090c-74.075 0-134.12-60.045-134.12-134.12v-722.074c0-74.075 60.045-134.12 134.12-134.12h722.090c74.058 0 134.103 60.028 134.103 134.12v722.074c0 74.075-60.045 134.12-134.103 134.12zM529.845 282.629c-36.061 0-63.464 12.363-82.21 37.105s-28.128 60.534-28.128 107.374c0 45.274 9.078 80.695 27.235 106.296s45.863 38.385 83.103 38.385c13.424 0 26.713-1.718 39.867-5.137s23.749-7.967 31.783-13.626l-10.662-25.467c-18.561 10.527-38.89 15.799-60.988 15.799-25.652 0-44.735-9.314-57.232-27.926s-18.746-48.070-18.746-88.324c0-77.376 25.332-116.065 75.995-116.065 21.441 0 43.421 6.586 65.923 19.74l10.072-25.467c-21.862-15.125-47.194-22.687-76.012-22.687z" />
<glyph unicode="&#x64;" d="M490.972 538.238h-22.89v-222.057h22.89c26.443 0 47.362 9.803 62.774 29.408s23.092 46.773 23.092 81.52c0 34.477-7.731 61.611-23.193 81.419s-36.364 29.711-62.673 29.711zM873.054 940.009h-722.090c-74.075 0-134.12-60.045-134.12-134.12v-722.074c0-74.075 60.045-134.12 134.12-134.12h722.090c74.058 0 134.103 60.028 134.103 134.12v722.074c0 74.075-60.045 134.12-134.103 134.12zM577.713 324.366c-22.3-24.271-50.883-36.414-85.764-36.414h-56.255v278.498h54.874c36.448 0 65.654-12.396 87.634-37.206s32.962-58.849 32.962-102.136c0.017-44.213-11.133-78.454-33.45-102.742z" />
<glyph unicode="&#x65;" d="M873.054 940.009h-722.090c-74.075 0-134.12-60.045-134.12-134.12v-722.074c0-74.075 60.045-134.12 134.12-134.12h722.090c74.058 0 134.103 60.028 134.103 134.12v722.074c0 74.075-60.045 134.12-134.103 134.12zM590.446 287.952h-145.472v278.498h144.277v-28.229h-111.921v-86.253h107.576v-28.229h-107.576v-107.576h113.1v-28.212z" />
<glyph unicode="&#x66;" d="M873.054 940.009h-722.090c-74.075 0-134.12-60.045-134.12-134.12v-722.074c0-74.075 60.045-134.12 134.12-134.12h722.090c74.058 0 134.103 60.028 134.103 134.12v722.074c0 74.075-60.045 134.12-134.103 134.12zM592.619 538.238h-115.273v-90.986h104.999v-28.229h-104.999v-131.055h-32.372v278.481h147.645v-28.212z" />
<glyph unicode="&#x67;" d="M873.054 940.009h-722.090c-74.075 0-134.12-60.045-134.12-134.12v-722.074c0-74.075 60.045-134.12 134.12-134.12h722.090c74.058 0 134.103 60.028 134.103 134.12v722.074c0 74.075-60.045 134.12-134.103 134.12zM605.453 307.692c-22.772-16.708-47.969-25.062-75.591-25.062-36.179 0-63.616 12.279-82.311 36.819s-28.027 60.432-28.027 107.677c0 45.661 9.045 81.183 27.134 106.582s45.83 38.099 83.187 38.099c13.424 0 26.713-1.718 39.867-5.137s23.749-7.967 31.783-13.626l-10.662-25.467c-18.561 10.527-38.89 15.799-60.988 15.799-25.534 0-44.566-9.348-57.148-28.027s-18.847-48.087-18.847-88.223c0-77.376 25.332-116.065 75.995-116.065 19.083 0 33.484 4.009 43.219 12.043v68.669h-50.141v28.027h82.497v-112.107z" />
<glyph unicode="&#x68;" d="M873.054 940.009h-722.090c-74.075 0-134.12-60.045-134.12-134.12v-722.074c0-74.075 60.045-134.12 134.12-134.12h722.090c74.058 0 134.103 60.028 134.103 134.12v722.074c0 74.075-60.045 134.12-134.103 134.12zM595.785 287.952h-32.372v138.163h-95.331v-138.163h-32.372v278.498h32.372v-111.921h95.331v111.921h32.372v-278.498z" />
<glyph unicode="&#x69;" d="M873.054 940.009h-722.090c-74.075 0-134.12-60.045-134.12-134.12v-722.074c0-74.075 60.045-134.12 134.12-134.12h722.090c74.058 0 134.103 60.028 134.103 134.12v722.074c0 74.075-60.045 134.12-134.103 134.12zM577.612 538.238h-46.183v-222.057h46.183v-28.229h-126.524v28.229h47.969v222.057h-47.969v28.229h126.524v-28.229z" />
<glyph unicode="&#x6a;" d="M873.054 940.009h-722.090c-74.075 0-134.12-60.045-134.12-134.12v-722.074c0-74.075 60.045-134.12 134.12-134.12h722.090c74.058 0 134.103 60.028 134.103 134.12v722.074c0 74.075-60.045 134.12-134.103 134.12zM565.384 361.976c0-25.534-6.67-45.139-20.026-58.816s-32.928-20.532-58.714-20.532c-22.502 0-42.966 4.733-61.393 14.215l9.668 25.854c15.664-7.765 32.894-11.638 51.708-11.638 16.321 0 28.128 4.312 35.438 12.935s10.948 22.081 10.948 40.356v202.115h32.372v-204.49z" />
<glyph unicode="&#x6b;" d="M873.054 940.009h-722.090c-74.075 0-134.12-60.045-134.12-134.12v-722.074c0-74.075 60.045-134.12 134.12-134.12h722.090c74.058 0 134.103 60.028 134.103 134.12v722.074c0 74.075-60.045 134.12-134.103 134.12zM591.625 287.952l-94.152 136.579-29.408-31.968v-104.611h-32.372v278.498h32.372v-133.43l123.56 133.43h37.307l-108.755-117.631 112.309-160.867h-40.861z" />
<glyph unicode="&#x6c;" d="M873.054 940.009h-722.090c-74.075 0-134.12-60.045-134.12-134.12v-722.074c0-74.075 60.045-134.12 134.12-134.12h722.090c74.058 0 134.103 60.028 134.103 134.12v722.074c0 74.075-60.045 134.12-134.103 134.12zM596.56 287.952h-151.586v278.498h32.372v-250.269h119.214v-28.229z" />
<glyph unicode="&#x6d;" d="M873.054 940.009h-722.090c-74.075 0-134.12-60.045-134.12-134.12v-722.074c0-74.075 60.045-134.12 134.12-134.12h722.090c74.058 0 134.103 60.028 134.103 134.12v722.074c0 74.075-60.045 134.12-134.103 134.12zM605.453 287.952h-31.193v238.833l-42.040-114.279h-30.587l-42.040 114.279v-238.833h-31.193v278.498h42.040l46.588-126.912 46.385 126.912h42.040v-278.498z" />
<glyph unicode="&#x6e;" d="M873.054 940.009h-722.090c-74.075 0-134.12-60.045-134.12-134.12v-722.074c0-74.075 60.045-134.12 134.12-134.12h722.090c74.058 0 134.103 60.028 134.103 134.12v722.074c0 74.075-60.045 134.12-134.103 134.12zM599.726 287.952h-35.926l-99.879 219.885v-219.885h-32.372v278.498h36.128l100.266-217.914v217.914h31.783v-278.498z" />
<glyph unicode="&#x6f;" d="M515.242 543.358c-20.009 0-35.235-10.038-45.695-30.098s-15.698-48.777-15.698-86.152c0-37.762 5.204-66.546 15.597-86.354s25.652-29.711 45.796-29.711c41.063 0 61.578 38.688 61.578 116.065 0.017 77.494-20.515 116.25-61.578 116.25zM873.054 940.009h-722.090c-74.075 0-134.12-60.045-134.12-134.12v-722.074c0-74.075 60.045-134.12 134.12-134.12h722.090c74.058 0 134.103 60.028 134.103 134.12v722.074c0 74.075-60.045 134.12-134.103 134.12zM586.69 319.734c-16.321-24.742-40.137-37.105-71.448-37.105-31.058 0-54.773 12.329-71.161 37.004s-24.574 60.5-24.574 107.475 8.152 82.834 24.473 107.576 40.069 37.105 71.246 37.105 54.975-12.329 71.347-37.004 24.574-60.567 24.574-107.677c0.034-46.84-8.135-82.631-24.456-107.374z" />
<glyph unicode="&#x70;" d="M873.054 940.009h-722.090c-74.075 0-134.12-60.045-134.12-134.12v-722.074c0-74.075 60.045-134.12 134.12-134.12h722.090c74.058 0 134.103 60.028 134.103 134.12v722.074c0 74.075-60.045 134.12-134.103 134.12zM579.885 434.115c-15.984-14.148-36.937-21.222-62.858-21.222h-39.665v-124.941h-32.372v278.498h70.656c26.713 0 48.087-6.703 64.155-20.127s24.085-31.917 24.085-55.464c-0.017-23.681-8.017-42.596-24.001-56.744zM514.063 538.238h-36.718v-97.116h35.134c38.031 0 57.047 15.917 57.047 47.767 0 14.738-5.171 26.646-15.496 35.724s-23.647 13.626-39.968 13.626z" />
<glyph unicode="&#x71;" d="M515.242 548.832c-20.009 0-35.235-10.038-45.695-30.098s-15.698-48.777-15.698-86.152c0-37.762 5.204-66.546 15.597-86.354s25.652-29.711 45.796-29.711c41.063 0 61.578 38.688 61.578 116.065 0.017 77.511-20.515 116.25-61.578 116.25zM873.054 940.009h-722.090c-74.075 0-134.12-60.045-134.12-134.12v-722.074c0-74.075 60.045-134.12 134.12-134.12h722.090c74.058 0 134.103 60.028 134.103 134.12v722.074c0 74.075-60.045 134.12-134.103 134.12zM584.534 242.105c-28.953 0-47.699 15.799-56.255 47.362-5.137-0.926-9.466-1.381-13.020-1.381-31.058 0-54.773 12.329-71.161 37.004s-24.574 60.5-24.574 107.475 8.152 82.834 24.473 107.576 40.069 37.105 71.246 37.105 54.975-12.329 71.347-37.004 24.574-60.567 24.574-107.677c0-68.416-17.112-112.898-51.32-133.43 4.868-19.218 14.148-28.818 27.825-28.818 7.63 0 15.984 0.994 25.062 2.964l5.727-25.854c-11.42-3.537-22.738-5.322-33.922-5.322z" />
<glyph unicode="&#x72;" d="M566.563 491.65c0 31.058-18.948 46.588-56.845 46.588h-41.653v-95.533h40.861c17.112 0 30.991 4.632 41.653 13.912s15.984 20.953 15.984 35.033zM873.054 940.009h-722.090c-74.075 0-134.12-60.045-134.12-134.12v-722.074c0-74.075 60.045-134.12 134.12-134.12h722.090c74.058 0 134.103 60.028 134.103 134.12v722.074c0 74.075-60.045 134.12-134.103 134.12zM585.713 287.952l-81.722 126.524h-35.926v-126.524h-32.372v278.498h78.758c26.443 0 47.345-6.417 62.673-19.251s22.991-30.688 22.991-53.594c0-16.978-5.592-32.069-16.776-45.291s-26.578-22.199-46.183-26.949l89.015-133.43h-40.457z" />
<glyph unicode="&#x73;" d="M873.054 940.009h-722.090c-74.075 0-134.12-60.045-134.12-134.12v-722.074c0-74.075 60.045-134.12 134.12-134.12h722.090c74.058 0 134.103 60.028 134.103 134.12v722.074c0 74.075-60.045 134.12-134.103 134.12zM568.836 305.030c-18.224-14.94-39.699-22.401-64.441-22.401-23.951 0-44.937 4.733-62.959 14.215l6.703 27.825c21.188-9.6 39.665-14.401 55.464-14.401 18.426 0 33.197 4.767 44.314 14.316s16.675 22.671 16.675 39.379c0 12.363-3.621 22.856-10.864 31.479s-20.599 17.399-40.069 26.342c-20.009 9.213-32.928 15.496-38.789 18.847s-11.672 8-17.466 13.912-10.257 12.565-13.424 19.942-4.733 15.394-4.733 24.085c0 23.024 8.287 40.996 24.877 53.881s37.56 19.336 62.959 19.336c18.561 0 36.97-2.83 55.262-8.489l-7.31-27.639c-16.573 5.659-32.305 8.489-47.177 8.489-16.843 0-30.553-3.857-41.147-11.554s-15.883-18.645-15.883-32.861c0-16.843 13.879-31.648 41.653-44.415 20.532-9.466 34.107-16.051 40.76-19.74s13.39-8.758 20.228-15.192 12.329-14.047 16.489-22.805 6.215-18.595 6.215-29.509c0-27.083-9.112-48.103-27.336-63.043z" />
<glyph unicode="&#x74;" d="M873.054 940.009h-722.090c-74.075 0-134.12-60.045-134.12-134.12v-722.074c0-74.075 60.045-134.12 134.12-134.12h722.090c74.058 0 134.103 60.028 134.103 134.12v722.074c0 74.075-60.045 134.12-134.103 134.12zM618.085 540.208h-85.865v-252.257h-32.17v252.257h-86.253v26.258h204.288v-26.258z" />
<glyph unicode="&#x75;" d="M873.054 940.009h-722.090c-74.075 0-134.12-60.045-134.12-134.12v-722.074c0-74.075 60.045-134.12 134.12-134.12h722.090c74.058 0 134.103 60.028 134.103 134.12v722.074c0 74.075-60.045 134.12-134.103 134.12zM595.785 375.585c0-32.237-6.552-55.784-19.639-70.656s-32.995-22.3-59.708-22.3c-53.813 0-80.728 30.722-80.728 92.181v191.639h32.372v-188.691c0-44.482 16.119-66.715 48.356-66.715 16.186 0 28.060 5.255 35.623 15.799s11.352 27.639 11.352 51.32v188.304h32.372v-190.881z" />
<glyph unicode="&#x76;" d="M873.054 940.009h-722.090c-74.075 0-134.12-60.045-134.12-134.12v-722.074c0-74.075 60.045-134.12 134.12-134.12h722.090c74.058 0 134.103 60.028 134.103 134.12v722.074c0 74.075-60.045 134.12-134.103 134.12zM534.78 287.952h-38.89l-90.986 278.498h33.955l76.383-241.006 76.787 241.006h33.551l-90.8-278.498z" />
<glyph unicode="&#x77;" d="M873.054 940.009h-722.090c-74.075 0-134.12-60.045-134.12-134.12v-722.074c0-74.075 60.045-134.12 134.12-134.12h722.090c74.058 0 134.103 60.028 134.103 134.12v722.074c0 74.075-60.045 134.12-134.103 134.12zM593.006 287.952h-29.997l-47.362 156.909-47.177-156.909h-30.789l-34.73 278.498h31.968l23.496-226.386 41.063 136.984h32.372l41.248-137.371 23.883 226.79h31.581l-35.555-278.515z" />
<glyph unicode="&#x78;" d="M873.054 940.009h-722.090c-74.075 0-134.12-60.045-134.12-134.12v-722.074c0-74.075 60.045-134.12 134.12-134.12h722.090c74.058 0 134.103 60.028 134.103 134.12v722.074c0 74.075-60.045 134.12-134.103 134.12zM588.088 287.952l-70.673 114.094-70.067-114.077h-35.926l89.015 141.919-88.628 136.579h37.105l68.483-110.338 69.090 110.338h35.522l-87.246-136.579 89.217-141.919h-35.892z" />
<glyph unicode="&#x79;" d="M873.054 940.009h-722.090c-74.075 0-134.12-60.045-134.12-134.12v-722.074c0-74.075 60.045-134.12 134.12-134.12h722.090c74.058 0 134.103 60.028 134.103 134.12v722.074c0 74.075-60.045 134.12-134.103 134.12zM532.22 407.166v-119.214h-32.17v119.214l-87.044 159.284h36.515l66.513-125.328 66.715 125.328h36.515l-87.044-159.284z" />
<glyph unicode="&#x7a;" d="M873.054 940.009h-722.090c-74.075 0-134.12-60.045-134.12-134.12v-722.074c0-74.075 60.045-134.12 134.12-134.12h722.090c74.058 0 134.103 60.028 134.103 134.12v722.074c0 74.075-60.045 134.12-134.103 134.12zM599.726 543.358l-132.436-227.178h130.078v-28.229h-166.981v22.704l131.847 227.582h-126.12v28.229h163.629v-23.109z" />
</font>
</defs>
</svg>
